# AST/ASF file generated using VICON BodyLanguage
# -----------------------------------------------
:version 1.10
:name VICON
:units
  mass 1.0
  length 0.45
  angle deg
:documentation
   .ast/.asf automatically generated from VICON data using
   VICON BodyBuilder and BodyLanguage model FoxedUp or BRILLIANT.MOD
:root
   order TX TY TZ RX RY RZ
   axis XYZ
   position 0 0 0  
   orientation 0 0 0 
:bonedata
  begin
     id 1 
     name lhipjoint
     direction 0.673618 -0.716094 0.182886 
     length 2.63917 
     axis 0 0 0  XYZ
  end
  begin
     id 2 
     name lfemur
     direction 0.34202 -0.939693 0  
     length 7.41015  
     axis 0 0 20  XYZ
    dof rx ry rz
    limits (-160.0 20.0)
           (-70.0 70.0)
           (-60.0 70.0)
  end
  begin
     id 3 
     name ltibia
     direction 0.34202 -0.939693 0   
     length 7.92551   
     axis 0 0 20   XYZ
    dof rx
    limits (-10.0 170.0)
  end
  begin
     id 4 
     name lfoot
     direction 0.0786834 -0.216181 0.973178   
     length 2.28657   
     axis -90 7.62852e-016 20   XYZ
    dof rx rz
    limits (-45.0 90.0)
           (-70.0 20.0)
  end
  begin
     id 5 
     name ltoes
     direction 1.53562e-011 -4.21928e-011 1   
     length 1.14687   
     axis -90 7.62852e-016 20   XYZ
    dof rx
    limits (-90.0 20.0)
  end
  begin
     id 6 
     name rhipjoint
     direction -0.630561 -0.752002 0.192056   
     length 2.51315  
     axis 0 0 0  XYZ 
  end
  begin
     id 7 
     name rfemur
     direction -0.34202 -0.939693 0   
     length 7.61317   
     axis 0 0 -20   XYZ
    dof rx ry rz
    limits (-160.0 20.0)
           (-70.0 70.0)
           (-70.0 60.0)
  end
  begin
     id 8 
     name rtibia
     direction -0.34202 -0.939693 0   
     length 7.99175   
     axis 0 0 -20   XYZ
    dof rx
    limits (-10.0 170.0)
 end
 begin
     id 9 
     name rfoot
     direction -0.109419 -0.300625 0.947445   
     length 2.34126  
     axis -90 -7.62852e-016 -20   XYZ
    dof rx rz
    limits (-45.0 90.0)
           (-20.0 70.0)
  end
  begin
     id 10 
     name rtoes
     direction -1.53603e-011 -4.21913e-011 1   
     length 1.16381   
     axis -90 -7.62852e-016 -20   XYZ
    dof rx
    limits (-90.0 20.0)
  end
  begin
     id 11 
     name lowerback
     direction 0.0168077 0.993836 -0.109583   
     length 2.02862   
     axis 0 0 0   XYZ
    dof rx ry rz
    limits (-20.0 45.0)
           (-30.0 30.0)
           (-30.0 30.0)
  end
  begin
     id 12 
     name upperback
     direction 0.0170634 0.999844 0.00461437   
     length 2.03044   
     axis 0 0 0   XYZ
    dof rx ry rz
    limits (-20.0 45.0)
           (-30.0 30.0)
           (-30.0 30.0)
  end
  begin
     id 13 
     name thorax
     direction 0.00813305 0.998421 0.0555897   
     length 2.05762   
     axis 0 0 0   XYZ
    dof rx ry rz
    limits (-20.0 45.0)
           (-30.0 30.0)
           (-30.0 30.0)
  end
  begin
     id 14 
     name lowerneck
     direction -0.00127547 0.992596 0.121455   
     length 1.7173   
     axis 0 0 0   XYZ
    dof rx ry rz
    limits (-20.0 45.0)
           (-30.0 30.0)
           (-30.0 30.0)
  end
  begin
     id 15 
     name upperneck
     direction 0.0144921 0.991716 -0.127628   
     length 1.73779   
     axis 0 0 0   XYZ
    dof rx ry rz
    limits (-20.0 45.0)
           (-30.0 30.0)
           (-30.0 30.0)
  end
  begin
     id 16
     name head
     direction 0.00161449 0.998411 -0.0563246  
     length 1.74399  
     axis 0 0 0   XYZ
    dof rx ry rz
    limits (-20.0 45.0)
           (-30.0 30.0)
           (-30.0 30.0)
  end
  begin
     id 17 
     name lclavicle
     direction 0.952642 0.284773 -0.106664  
     length 3.53079  
     axis 0 0 0   XYZ
    dof ry rz
    limits (-20.0 10.0)
           (0.0 20.0)
  end
  begin
     id 18 
     name lhumerus
     direction 1 -4.48971e-011 1.90155e-027   
     length 5.06507   
     axis 180 -30 -90   XYZ
    dof rx ry rz
    limits (-60.0 90.0)
           (-90.0 90.0)
           (-90.0 90.0)
  end
  begin
     id 19
     name lradius
     direction 1 -4.48978e-011 1.0994e-027   
     length 3.60196   
     axis 180 -30 -90   XYZ
    dof rx
    limits (-10.0 170.0)
  end
  begin
     id 20
     name lwrist
     direction 1 -4.48947e-011 2.56952e-028   
     length 1.80098   
     axis -5.12785e-016 90 90   XYZ
    dof ry
    limits (-180.0 0.0)
 end
  begin
     id 21 
     name lhand
     direction 1 -4.49009e-011 5.13905e-028   
     length 0.450346   
     axis -3.27915e-016 90 90   XYZ
    dof rx rz
    limits (-90.0 90.0)
           (-45.0 45.0)
  end
  begin
     id 22 
     name lfingers
     direction 1 -4.48975e-011 1.02781e-027   
     length 0.363081   
     axis -6.5583e-016 90 90   XYZ
    dof rx
    limits (0.0 90.0)
  end
  begin
     id 23
     name lthumb
     direction 0.707107 -6.34941e-011 0.707107   
     length 0.521313   
     axis -90 45 2.85299e-015   XYZ
    dof rx rz
    limits (-45.0 45.0)
           (-45.0 45.0)
  end
  begin
     id 24 
     name rclavicle
     direction -0.955889 0.219434 -0.195256   
     length 3.66318  
     axis 0 0 0   XYZ 
    dof ry rz
    limits (-10.0 20.0)
           (-20.0 0.0)
  end
  begin
     id 25 
     name rhumerus
     direction -1 -4.48973e-011 1.65154e-027  
     length 5.36394   
     axis 180 30 90   XYZ
    dof rx ry rz
    limits (-90.0 60.0)
           (-90.0 90.0)
           (-90.0 90.0)
  end
  begin
     id 26 
     name rradius
     direction -1 -4.4898e-011 3.26231e-028   
     length 3.58035   
     axis 180 30 90   XYZ
    dof rx
    limits (-10.0 170.0)
  end
  begin
     id 27 
     name rwrist
     direction -1 -4.4894e-011 2.56952e-028   
     length 1.79017   
     axis -5.12785e-016 -90 -90   XYZ
    dof ry
    limits (-180.0 0.0)
  end
  begin
     id 28
     name rhand
     direction -1 -4.48999e-011 5.13905e-028   
     length 0.663747   
     axis -3.27915e-016 -90 -90   XYZ
    dof rx rz
    limits (-90.0 90.0)
           (-45.0 45.0)
  end
  begin
     id 29
     name rfingers
     direction -1 -4.49025e-011 1.02781e-027   
     length 0.53513   
     axis -6.5583e-016 -90 -90   XYZ
    dof rx
    limits (0.0 90.0)
  end
  begin
     id 30
     name rthumb
     direction -0.707107 -6.34891e-011 0.707107   
     length 0.768342   
     axis -90 -45 -2.85299e-015   XYZ
    dof rx rz
    limits (-45.0 45.0)
           (-45.0 45.0)
  end
:hierarchy
  begin
    root lhipjoint rhipjoint lowerback
    lhipjoint lfemur
    lfemur ltibia
    ltibia lfoot
    lfoot ltoes
    rhipjoint rfemur
    rfemur rtibia
    rtibia rfoot
    rfoot rtoes
    lowerback upperback
    upperback thorax
    thorax lowerneck lclavicle rclavicle
    lowerneck upperneck
    upperneck head
    lclavicle lhumerus
    lhumerus lradius
    lradius lwrist
    lwrist lhand lthumb
    lhand lfingers
    rclavicle rhumerus
    rhumerus rradius
    rradius rwrist
    rwrist rhand rthumb
    rhand rfingers
  end

#!OML:ASF F:\VICON\USERDATA\INSTALL\rory3\rory3.ASF
:FULLY-SPECIFIED
:DEGREES
94
root 4.35114 17.8834 -3.49017 -2.3754 0.266636 -0.692365
lowerback 10.7047 -1.44243 -1.82967
upperback 0.34534 -1.99744 2.52071
thorax -5.49241 -0.905213 3.98247
lowerneck -16.8732 -2.9296 -2.2572
upperneck 22.8921 -3.32621 -0.656846
head 10.115 -1.8149 -0.306303
rclavicle -2.28105e-014 2.38542e-015
rhumerus -36.0684 -24.1406 -73.4784
rradius 22.3272
rwrist 7.68085
rhand -17.9529 21.8738
rfingers 7.12502
rthumb 8.31579 -7.94254
lclavicle -2.28105e-014 2.38542e-015
lhumerus -30.4965 -1.95416 81.8599
lradius 32.1642
lwrist 6.97822
lhand -26.9482 24.7456
lfingers 7.12502
lthumb -0.370079 54.725
rfemur -27.0975 5.35848 22.9284
rtibia 32.5063
rfoot -4.20999 -2.51683
rtoes 8.9986
lfemur 7.37617 -0.951203 -20.9111
ltibia 44.0223
lfoot 10.7921 -16.3176
ltoes -6.068
95
root 4.32865 17.8976 -3.28628 -2.36019 0.210561 -0.941227
lowerback 10.6622 -1.37593 -1.55901
upperback 0.282119 -1.87595 2.50141
thorax -5.55413 -0.850579 3.79078
lowerneck -16.9526 -3.01237 -2.11139
upperneck 23.0686 -3.46105 -0.739213
head 10.1897 -1.87423 -0.381386
rclavicle 1.41883e-014 -1.31198e-014
rhumerus -36.2157 -23.5836 -73.8285
rradius 22.6811
rwrist 6.96642
rhand -17.9419 21.344
rfingers 7.12502
rthumb 8.32639 -8.47191
lclavicle 1.41883e-014 -1.31198e-014
lhumerus -31.0143 -2.05105 81.9354
lradius 32.2577
lwrist 7.13155
lhand -26.7494 24.5929
lfingers 7.12502
lthumb -0.178062 54.5726
rfemur -26.8473 5.51143 23.4257
rtibia 33.3716
rfoot -4.57168 -2.52092
rtoes 9.81757
lfemur 6.69796 -0.314557 -20.2064
ltibia 46.0537
lfoot 10.5685 -19.6961
ltoes -14.9288
96
root 4.30701 17.8817 -3.10128 -2.45901 0.0554178 -1.50721
lowerback 10.8968 -1.2859 -1.03842
upperback 0.185493 -1.68462 2.59403
thorax -5.81445 -0.763339 3.57635
lowerneck -16.9087 -3.06798 -2.03073
upperneck 23.3021 -3.56239 -0.74856
head 10.2642 -1.91535 -0.414161
rclavicle 1.39149e-014 1.19271e-014
rhumerus -36.3859 -23.8064 -73.6368
rradius 22.5297
rwrist 7.4985
rhand -18.6489 20.5559
rfingers 7.12502
rthumb 7.64405 -9.28595
lclavicle 1.39149e-014 1.19271e-014
lhumerus -31.563 -2.37657 82.1599
lradius 32.4352
lwrist 7.82651
lhand -26.6162 23.621
lfingers 7.12502
lthumb -0.0493652 53.6008
rfemur -26.7024 5.71922 24.305
rtibia 34.4289
rfoot -4.76324 -2.55238
rtoes 10.0422
lfemur 6.57207 0.738469 -19.1261
ltibia 47.992
lfoot -0.917248 -23.9357
ltoes -42.9186
97
root 4.29151 17.7123 -2.94448 -2.54126 0.0311205 -2.18867
lowerback 10.9957 -1.30246 -0.453497
upperback 0.149609 -1.61992 2.78058
thorax -5.92332 -0.743347 3.43674
lowerneck -16.7964 -3.0655 -1.8981
upperneck 23.3758 -3.55437 -0.923565
head 10.2629 -1.92144 -0.495764
rclavicle -1.18277e-014 1.23246e-014
rhumerus -36.1377 -23.5853 -73.7074
rradius 22.1802
rwrist 7.55313
rhand -18.9935 20.7282
rfingers 7.12502
rthumb 7.31138 -9.12547
lclavicle -1.18277e-014 1.23246e-014
lhumerus -31.9524 -2.61342 82.4847
lradius 32.3774
lwrist 8.199
lhand -25.6032 24.415
lfingers 7.12502
lthumb 0.928939 54.3927
rfemur -26.906 5.91924 25.2676
rtibia 35.407
rfoot -4.72539 -2.75309
rtoes 11.0098
lfemur 6.84517 1.50982 -17.995
ltibia 49.5782
lfoot -25.1619 -8.58215
ltoes -42.8706
98
root 4.27828 17.7287 -2.75309 -2.60166 -0.0393545 -2.5589
lowerback 10.912 -1.30543 -0.0544202
upperback 0.174607 -1.57007 2.8609
thorax -5.86152 -0.730066 3.28408
lowerneck -16.4691 -3.06066 -1.93129
upperneck 23.0863 -3.54524 -0.924438
head 10.0969 -1.92068 -0.479444
rclavicle 1.55797e-014 2.42517e-014
rhumerus -35.8412 -23.2798 -73.8985
rradius 22.1013
rwrist 7.51615
rhand -18.7905 21.3858
rfingers 7.12502
rthumb 7.50737 -8.46094
lclavicle 1.55797e-014 2.42517e-014
lhumerus -32.1342 -2.72924 82.6829
lradius 31.7542
lwrist 8.49943
lhand -25.439 20.0566
lfingers 7.12502
lthumb 1.08756 50.0336
rfemur -26.0341 6.11065 25.8491
rtibia 35.2583
rfoot -4.86794 -2.79734
rtoes 12.1207
lfemur 5.80341 1.77032 -17.394
ltibia 51.7883
lfoot -27.3211 -4.07762
ltoes -33.8488
99
root 4.25782 17.8557 -2.54625 -2.69408 -0.358832 -3.06673
lowerback 11.09 -1.2061 0.421056
upperback 0.0989803 -1.36571 2.96208
thorax -6.06187 -0.63902 3.09801
lowerneck -16.2813 -3.03296 -2.03987
upperneck 23.0626 -3.52414 -0.757544
head 10.0585 -1.90116 -0.396357
rclavicle -7.57867e-015 3.97569e-016
rhumerus -35.747 -22.7115 -74.1769
rradius 22.2632
rwrist 7.15772
rhand -18.3259 21.7387
rfingers 7.12502
rthumb 7.95581 -8.09161
lclavicle -7.57867e-015 3.97569e-016
lhumerus -32.4273 -2.73746 82.7458
lradius 32.0802
lwrist 6.97281
lhand -26.5456 22.4917
lfingers 7.12502
lthumb 0.0188122 52.4714
rfemur -24.8064 6.55314 26.6372
rtibia 35.0051
rfoot -5.40203 -3.01033
rtoes 11.8022
lfemur 3.18149 2.06749 -16.4625
ltibia 54.4222
lfoot -16.0045 -23.9779
ltoes -49.5287
100
root 4.23201 18.0269 -2.33138 -2.77094 -0.584812 -3.53749
lowerback 11.2715 -1.08765 0.877092
upperback 0.0701681 -1.14144 2.99198
thorax -6.21412 -0.540474 2.84194
lowerneck -16.6462 -3.06203 -1.8507
upperneck 23.367 -3.61214 -0.748012
head 10.2336 -1.92299 -0.446743
rclavicle -2.03506e-014 3.69739e-014
rhumerus -35.5358 -22.5756 -74.434
rradius 22.3043
rwrist 7.21138
rhand -16.8177 24.2513
rfingers 7.12502
rthumb 9.41126 -5.51863
lclavicle -2.03506e-014 3.69739e-014
lhumerus -32.5894 -3.04261 82.8522
lradius 32.0388
lwrist 6.38395
lhand -28.4842 17.7975
lfingers 7.12502
lthumb -1.85359 47.7692
rfemur -23.2617 6.9999 27.3762
rtibia 34.2178
rfoot -5.81607 -3.37074
rtoes 10.9193
lfemur -0.743533 2.14969 -15.5345
ltibia 57.7067
lfoot 21.8443 -22.1688
ltoes -7.78454
101
root 4.22393 17.9882 -2.14382 -2.83027 -0.601983 -3.56871
lowerback 11.1144 -1.03772 0.980959
upperback 0.18919 -1.07362 2.92519
thorax -6.00565 -0.513142 2.69397
lowerneck -16.8519 -3.11198 -1.8515
upperneck 23.3189 -3.70261 -0.646844
head 10.258 -1.95158 -0.426425
rclavicle 1.61513e-015 -7.95139e-015
rhumerus -35.0405 -22.3423 -74.7655
rradius 22.2912
rwrist 7.3466
rhand -15.7088 26.51
rfingers 7.12502
rthumb 10.481 -3.20869
lclavicle 1.61513e-015 -7.95139e-015
lhumerus -32.5462 -3.17 83.076
lradius 31.7183
lwrist 6.36183
lhand -28.0678 20.5041
lfingers 7.12502
lthumb -1.45139 50.479
rfemur -22.253 6.96255 27.6075
rtibia 33.4926
rfoot -5.7661 -3.442
rtoes 10.1011
lfemur -1.02603 3.2094 -15.2376
ltibia 60.4899
lfoot 3.75665 -27.7726
ltoes -42.4806
